<mxfile host="app.diagrams.net" agent="Mozilla/5.0 (Macintosh; Intel Mac OS X 10_15_7) AppleWebKit/537.36 (KHTML, like Gecko) Chrome/131.0.0.0 Safari/537.36" scale="1" border="0" version="25.0.3">
  <diagram name="Page-1" id="2YBvvXClWsGukQMizWep">
    <mxGraphModel dx="1368" dy="2021" grid="1" gridSize="10" guides="1" tooltips="1" connect="1" arrows="1" fold="1" page="1" pageScale="1" pageWidth="850" pageHeight="1100" math="0" shadow="0">
      <root>
        <mxCell id="0" />
        <mxCell id="1" parent="0" />
        <mxCell id="QDihuIbp6Lw-h8ZXW96g-6" value=":Object" style="shape=umlLifeline;perimeter=lifelinePerimeter;whiteSpace=wrap;html=1;container=1;dropTarget=0;collapsible=0;recursiveResize=0;outlineConnect=0;portConstraint=eastwest;newEdgeStyle={&quot;curved&quot;:0,&quot;rounded&quot;:0};" vertex="1" parent="1">
          <mxGeometry x="780" y="-10" width="100" height="260" as="geometry" />
        </mxCell>
        <mxCell id="CObYJEAy56xA2G8EUnc1-1" value="S&amp;amp;C" style="shape=umlLifeline;perimeter=lifelinePerimeter;whiteSpace=wrap;html=1;container=1;dropTarget=0;collapsible=0;recursiveResize=0;outlineConnect=0;portConstraint=eastwest;newEdgeStyle={&quot;edgeStyle&quot;:&quot;elbowEdgeStyle&quot;,&quot;elbow&quot;:&quot;vertical&quot;,&quot;curved&quot;:0,&quot;rounded&quot;:0};" parent="1" vertex="1">
          <mxGeometry x="320" width="100" height="260" as="geometry" />
        </mxCell>
        <mxCell id="hh9Ni2VgHgSeFQTvjpv2-1" value="" style="html=1;points=[[0,0,0,0,5],[0,1,0,0,-5],[1,0,0,0,5],[1,1,0,0,-5]];perimeter=orthogonalPerimeter;outlineConnect=0;targetShapes=umlLifeline;portConstraint=eastwest;newEdgeStyle={&quot;curved&quot;:0,&quot;rounded&quot;:0};" parent="CObYJEAy56xA2G8EUnc1-1" vertex="1">
          <mxGeometry x="45" y="74" width="10" height="50" as="geometry" />
        </mxCell>
        <mxCell id="CObYJEAy56xA2G8EUnc1-6" value="" style="shape=umlLifeline;perimeter=lifelinePerimeter;whiteSpace=wrap;html=1;container=1;dropTarget=0;collapsible=0;recursiveResize=0;outlineConnect=0;portConstraint=eastwest;newEdgeStyle={&quot;curved&quot;:0,&quot;rounded&quot;:0};participant=umlActor;" parent="1" vertex="1">
          <mxGeometry x="135" width="20" height="260" as="geometry" />
        </mxCell>
        <mxCell id="CObYJEAy56xA2G8EUnc1-7" value="Student" style="text;html=1;align=center;verticalAlign=middle;resizable=0;points=[];autosize=1;strokeColor=none;fillColor=none;" parent="1" vertex="1">
          <mxGeometry x="76" y="10" width="60" height="30" as="geometry" />
        </mxCell>
        <mxCell id="CObYJEAy56xA2G8EUnc1-8" value="" style="edgeStyle=elbowEdgeStyle;fontSize=12;html=1;endArrow=blockThin;endFill=1;rounded=0;" parent="1" source="CObYJEAy56xA2G8EUnc1-6" edge="1">
          <mxGeometry width="160" relative="1" as="geometry">
            <mxPoint x="154.81034482758616" y="70" as="sourcePoint" />
            <mxPoint x="369.5" y="70" as="targetPoint" />
            <Array as="points">
              <mxPoint x="270" y="70" />
            </Array>
          </mxGeometry>
        </mxCell>
        <mxCell id="CObYJEAy56xA2G8EUnc1-9" value="requestApplicationList(profile)" style="text;html=1;align=center;verticalAlign=middle;resizable=0;points=[];autosize=1;strokeColor=none;fillColor=none;" parent="1" vertex="1">
          <mxGeometry x="171" y="47" width="180" height="30" as="geometry" />
        </mxCell>
        <mxCell id="CObYJEAy56xA2G8EUnc1-15" value="&lt;b&gt;Interaction&lt;/b&gt;&amp;nbsp;Student Examines Applications" style="shape=umlFrame;whiteSpace=wrap;html=1;pointerEvents=0;width=260;height=30;" parent="1" vertex="1">
          <mxGeometry x="60" y="-50" width="1090" height="320" as="geometry" />
        </mxCell>
        <mxCell id="N4ezWAQjIMXn5G-POvpN-3" value="redirectToApplicationPage(applicationData)" style="html=1;verticalAlign=bottom;endArrow=open;dashed=1;endSize=8;curved=0;rounded=0;" parent="1" edge="1">
          <mxGeometry x="0.0001" relative="1" as="geometry">
            <mxPoint x="370.69000000000005" y="248" as="sourcePoint" />
            <mxPoint x="144.99999999999997" y="248" as="targetPoint" />
            <Array as="points">
              <mxPoint x="281.19000000000005" y="248" />
            </Array>
            <mxPoint as="offset" />
          </mxGeometry>
        </mxCell>
        <mxCell id="QDihuIbp6Lw-h8ZXW96g-1" value="API" style="shape=module;align=left;spacingLeft=20;align=center;verticalAlign=top;whiteSpace=wrap;html=1;" vertex="1" parent="1">
          <mxGeometry x="310" y="-10" width="110" height="50" as="geometry" />
        </mxCell>
        <mxCell id="QDihuIbp6Lw-h8ZXW96g-2" value=":Object" style="shape=umlLifeline;perimeter=lifelinePerimeter;whiteSpace=wrap;html=1;container=1;dropTarget=0;collapsible=0;recursiveResize=0;outlineConnect=0;portConstraint=eastwest;newEdgeStyle={&quot;curved&quot;:0,&quot;rounded&quot;:0};" vertex="1" parent="1">
          <mxGeometry x="550" width="100" height="250" as="geometry" />
        </mxCell>
        <mxCell id="QDihuIbp6Lw-h8ZXW96g-15" value="" style="html=1;points=[[0,0,0,0,5],[0,1,0,0,-5],[1,0,0,0,5],[1,1,0,0,-5]];perimeter=orthogonalPerimeter;outlineConnect=0;targetShapes=umlLifeline;portConstraint=eastwest;newEdgeStyle={&quot;curved&quot;:0,&quot;rounded&quot;:0};" vertex="1" parent="QDihuIbp6Lw-h8ZXW96g-2">
          <mxGeometry x="45" y="80" width="10" height="40" as="geometry" />
        </mxCell>
        <mxCell id="QDihuIbp6Lw-h8ZXW96g-3" value="" style="edgeStyle=elbowEdgeStyle;fontSize=12;html=1;endArrow=blockThin;endFill=1;rounded=0;" edge="1" parent="1" target="QDihuIbp6Lw-h8ZXW96g-2">
          <mxGeometry width="160" relative="1" as="geometry">
            <mxPoint x="370" y="77" as="sourcePoint" />
            <mxPoint x="594.5" y="77" as="targetPoint" />
            <Array as="points">
              <mxPoint x="495" y="77" />
            </Array>
          </mxGeometry>
        </mxCell>
        <mxCell id="QDihuIbp6Lw-h8ZXW96g-4" value="ProfileManager" style="shape=module;align=left;spacingLeft=20;align=center;verticalAlign=top;whiteSpace=wrap;html=1;" vertex="1" parent="1">
          <mxGeometry x="540" y="-10" width="110" height="50" as="geometry" />
        </mxCell>
        <mxCell id="QDihuIbp6Lw-h8ZXW96g-5" value="ApplicationManager" style="shape=module;align=left;spacingLeft=20;align=center;verticalAlign=top;whiteSpace=wrap;html=1;" vertex="1" parent="1">
          <mxGeometry x="750" y="-10" width="140" height="50" as="geometry" />
        </mxCell>
        <mxCell id="QDihuIbp6Lw-h8ZXW96g-7" value="" style="edgeStyle=elbowEdgeStyle;fontSize=12;html=1;endArrow=blockThin;endFill=1;rounded=0;elbow=vertical;" edge="1" parent="1" target="QDihuIbp6Lw-h8ZXW96g-8">
          <mxGeometry x="-0.0435" y="30" width="160" relative="1" as="geometry">
            <mxPoint x="600" y="90" as="sourcePoint" />
            <mxPoint x="830" y="90" as="targetPoint" />
            <Array as="points">
              <mxPoint x="725" y="90" />
            </Array>
            <mxPoint as="offset" />
          </mxGeometry>
        </mxCell>
        <mxCell id="QDihuIbp6Lw-h8ZXW96g-8" value=":Object" style="shape=umlLifeline;perimeter=lifelinePerimeter;whiteSpace=wrap;html=1;container=1;dropTarget=0;collapsible=0;recursiveResize=0;outlineConnect=0;portConstraint=eastwest;newEdgeStyle={&quot;curved&quot;:0,&quot;rounded&quot;:0};" vertex="1" parent="1">
          <mxGeometry x="1010" y="-10" width="100" height="260" as="geometry" />
        </mxCell>
        <mxCell id="QDihuIbp6Lw-h8ZXW96g-33" value="" style="html=1;points=[[0,0,0,0,5],[0,1,0,0,-5],[1,0,0,0,5],[1,1,0,0,-5]];perimeter=orthogonalPerimeter;outlineConnect=0;targetShapes=umlLifeline;portConstraint=eastwest;newEdgeStyle={&quot;curved&quot;:0,&quot;rounded&quot;:0};" vertex="1" parent="QDihuIbp6Lw-h8ZXW96g-8">
          <mxGeometry x="45" y="100" width="10" height="30" as="geometry" />
        </mxCell>
        <mxCell id="QDihuIbp6Lw-h8ZXW96g-34" value="" style="html=1;points=[[0,0,0,0,5],[0,1,0,0,-5],[1,0,0,0,5],[1,1,0,0,-5]];perimeter=orthogonalPerimeter;outlineConnect=0;targetShapes=umlLifeline;portConstraint=eastwest;newEdgeStyle={&quot;curved&quot;:0,&quot;rounded&quot;:0};" vertex="1" parent="QDihuIbp6Lw-h8ZXW96g-8">
          <mxGeometry x="45" y="210" width="10" height="30" as="geometry" />
        </mxCell>
        <mxCell id="QDihuIbp6Lw-h8ZXW96g-11" value="Database" style="shape=module;align=left;spacingLeft=20;align=center;verticalAlign=top;whiteSpace=wrap;html=1;" vertex="1" parent="1">
          <mxGeometry x="1000" y="-10" width="110" height="50" as="geometry" />
        </mxCell>
        <mxCell id="QDihuIbp6Lw-h8ZXW96g-13" value="requestApplicationList(profile)" style="text;html=1;align=center;verticalAlign=middle;resizable=0;points=[];autosize=1;strokeColor=none;fillColor=none;" vertex="1" parent="1">
          <mxGeometry x="400" y="50" width="180" height="30" as="geometry" />
        </mxCell>
        <mxCell id="QDihuIbp6Lw-h8ZXW96g-14" value="ApplicationListPage" style="html=1;verticalAlign=bottom;endArrow=open;dashed=1;endSize=8;curved=0;rounded=0;" edge="1" parent="1">
          <mxGeometry x="-0.0023" relative="1" as="geometry">
            <mxPoint x="600" y="124" as="sourcePoint" />
            <mxPoint x="370" y="124" as="targetPoint" />
            <Array as="points">
              <mxPoint x="506" y="124" />
            </Array>
            <mxPoint as="offset" />
          </mxGeometry>
        </mxCell>
        <mxCell id="QDihuIbp6Lw-h8ZXW96g-16" value="getApplicationList(profile)" style="text;html=1;align=center;verticalAlign=middle;resizable=0;points=[];autosize=1;strokeColor=none;fillColor=none;" vertex="1" parent="1">
          <mxGeometry x="790" y="66" width="160" height="30" as="geometry" />
        </mxCell>
        <mxCell id="QDihuIbp6Lw-h8ZXW96g-17" value="requestApplicationPage(application)" style="text;html=1;align=center;verticalAlign=middle;resizable=0;points=[];autosize=1;strokeColor=none;fillColor=none;" vertex="1" parent="1">
          <mxGeometry x="145" y="150" width="220" height="30" as="geometry" />
        </mxCell>
        <mxCell id="QDihuIbp6Lw-h8ZXW96g-20" value="" style="edgeStyle=elbowEdgeStyle;fontSize=12;html=1;endArrow=blockThin;endFill=1;rounded=0;" edge="1" parent="1">
          <mxGeometry width="160" relative="1" as="geometry">
            <mxPoint x="144.25" y="177" as="sourcePoint" />
            <mxPoint x="370" y="177" as="targetPoint" />
            <Array as="points">
              <mxPoint x="270.25" y="177" />
            </Array>
          </mxGeometry>
        </mxCell>
        <mxCell id="QDihuIbp6Lw-h8ZXW96g-21" value="redirectToApplicationListPage(profile)" style="html=1;verticalAlign=bottom;endArrow=open;dashed=1;endSize=8;curved=0;rounded=0;" edge="1" parent="1">
          <mxGeometry relative="1" as="geometry">
            <mxPoint x="376" y="139.47" as="sourcePoint" />
            <mxPoint x="146" y="139.47" as="targetPoint" />
            <Array as="points" />
          </mxGeometry>
        </mxCell>
        <mxCell id="QDihuIbp6Lw-h8ZXW96g-22" value="" style="edgeStyle=elbowEdgeStyle;fontSize=12;html=1;endArrow=blockThin;endFill=1;rounded=0;" edge="1" parent="1" source="QDihuIbp6Lw-h8ZXW96g-30" target="QDihuIbp6Lw-h8ZXW96g-6">
          <mxGeometry width="160" relative="1" as="geometry">
            <mxPoint x="370" y="190" as="sourcePoint" />
            <mxPoint x="595.75" y="190" as="targetPoint" />
            <Array as="points">
              <mxPoint x="496" y="190" />
            </Array>
          </mxGeometry>
        </mxCell>
        <mxCell id="QDihuIbp6Lw-h8ZXW96g-23" value="requestApplicationPage(application)" style="text;html=1;align=center;verticalAlign=middle;resizable=0;points=[];autosize=1;strokeColor=none;fillColor=none;" vertex="1" parent="1">
          <mxGeometry x="420" y="168" width="220" height="30" as="geometry" />
        </mxCell>
        <mxCell id="QDihuIbp6Lw-h8ZXW96g-24" value="ApplicationList" style="html=1;verticalAlign=bottom;endArrow=open;dashed=1;endSize=8;curved=0;rounded=0;" edge="1" parent="1">
          <mxGeometry relative="1" as="geometry">
            <mxPoint x="1059.5" y="119.47000000000003" as="sourcePoint" />
            <mxPoint x="600" y="119.47" as="targetPoint" />
            <Array as="points">
              <mxPoint x="736" y="119.47" />
            </Array>
          </mxGeometry>
        </mxCell>
        <mxCell id="QDihuIbp6Lw-h8ZXW96g-25" value="getDetails(application)" style="text;html=1;align=center;verticalAlign=middle;resizable=0;points=[];autosize=1;strokeColor=none;fillColor=none;" vertex="1" parent="1">
          <mxGeometry x="880" y="170" width="140" height="30" as="geometry" />
        </mxCell>
        <mxCell id="QDihuIbp6Lw-h8ZXW96g-27" value="" style="edgeStyle=elbowEdgeStyle;fontSize=12;html=1;endArrow=blockThin;endFill=1;rounded=0;" edge="1" parent="1">
          <mxGeometry width="160" relative="1" as="geometry">
            <mxPoint x="830" y="198" as="sourcePoint" />
            <mxPoint x="1060" y="198" as="targetPoint" />
            <Array as="points">
              <mxPoint x="955" y="198" />
            </Array>
          </mxGeometry>
        </mxCell>
        <mxCell id="QDihuIbp6Lw-h8ZXW96g-28" value="" style="html=1;points=[[0,0,0,0,5],[0,1,0,0,-5],[1,0,0,0,5],[1,1,0,0,-5]];perimeter=orthogonalPerimeter;outlineConnect=0;targetShapes=umlLifeline;portConstraint=eastwest;newEdgeStyle={&quot;curved&quot;:0,&quot;rounded&quot;:0};" vertex="1" parent="1">
          <mxGeometry x="825" y="190" width="10" height="50" as="geometry" />
        </mxCell>
        <mxCell id="QDihuIbp6Lw-h8ZXW96g-29" value="applicationDetails" style="html=1;verticalAlign=bottom;endArrow=open;dashed=1;endSize=8;curved=0;rounded=0;" edge="1" parent="1">
          <mxGeometry relative="1" as="geometry">
            <mxPoint x="1060" y="230" as="sourcePoint" />
            <mxPoint x="835" y="230" as="targetPoint" />
            <Array as="points">
              <mxPoint x="971" y="228.95" />
            </Array>
          </mxGeometry>
        </mxCell>
        <mxCell id="QDihuIbp6Lw-h8ZXW96g-31" value="" style="edgeStyle=elbowEdgeStyle;fontSize=12;html=1;endArrow=blockThin;endFill=1;rounded=0;" edge="1" parent="1" target="QDihuIbp6Lw-h8ZXW96g-30">
          <mxGeometry width="160" relative="1" as="geometry">
            <mxPoint x="370" y="190" as="sourcePoint" />
            <mxPoint x="830" y="190" as="targetPoint" />
            <Array as="points" />
          </mxGeometry>
        </mxCell>
        <mxCell id="QDihuIbp6Lw-h8ZXW96g-30" value="" style="html=1;points=[[0,0,0,0,5],[0,1,0,0,-5],[1,0,0,0,5],[1,1,0,0,-5]];perimeter=orthogonalPerimeter;outlineConnect=0;targetShapes=umlLifeline;portConstraint=eastwest;newEdgeStyle={&quot;curved&quot;:0,&quot;rounded&quot;:0};" vertex="1" parent="1">
          <mxGeometry x="365" y="180" width="10" height="60" as="geometry" />
        </mxCell>
        <mxCell id="QDihuIbp6Lw-h8ZXW96g-32" value="applicationDetailsPage" style="html=1;verticalAlign=bottom;endArrow=open;dashed=1;endSize=8;curved=0;rounded=0;" edge="1" parent="1">
          <mxGeometry x="0.0011" relative="1" as="geometry">
            <mxPoint x="830" y="242" as="sourcePoint" />
            <mxPoint x="369.4473684210527" y="242" as="targetPoint" />
            <Array as="points">
              <mxPoint x="800" y="242" />
            </Array>
            <mxPoint as="offset" />
          </mxGeometry>
        </mxCell>
      </root>
    </mxGraphModel>
  </diagram>
</mxfile>
